<svg width="32" height="32" viewBox="0 0 32 32" fill="none" xmlns="http://www.w3.org/2000/svg">
<path fill-rule="evenodd" clip-rule="evenodd" d="M16.0001 6.39996C10.6975 6.39996 6.40009 10.6992 6.40009 16C6.40009 21.3008 10.6975 25.6 16.0001 25.6C21.3009 25.6 25.6001 21.3008 25.6001 16C25.6001 10.6992 21.3009 6.39996 16.0001 6.39996ZM15.9993 24C11.5884 24 7.99928 20.4108 7.99928 16C7.99928 11.5891 11.5884 7.99996 15.9993 7.99996C20.4102 7.99996 23.9993 11.5891 23.9993 16C23.9993 20.4108 20.4102 24 15.9993 24Z" fill="#FDB22B"/>
<path fill-rule="evenodd" clip-rule="evenodd" d="M16 4.8C15.5583 4.8 15.2 4.44176 15.2 4V0.8C15.2 0.35824 15.5583 0 16 0C16.4418 0 16.8 0.35824 16.8 0.8V4C16.8 4.44176 16.4418 4.8 16 4.8Z" fill="#FDB22B"/>
<path fill-rule="evenodd" clip-rule="evenodd" d="M16 32C15.5583 32 15.2 31.6418 15.2 31.2V28C15.2 27.5583 15.5583 27.2 16 27.2C16.4418 27.2 16.8 27.5583 16.8 28V31.2C16.8 31.6418 16.4418 32 16 32Z" fill="#FDB22B"/>
<path fill-rule="evenodd" clip-rule="evenodd" d="M4.8 16C4.8 16.4418 4.44176 16.8 4 16.8H0.8C0.35824 16.8 0 16.4418 0 16C0 15.5583 0.35824 15.2 0.8 15.2H4C4.44176 15.2 4.8 15.5583 4.8 16Z" fill="#FDB22B"/>
<path fill-rule="evenodd" clip-rule="evenodd" d="M32 16C32 16.4418 31.6418 16.8 31.2 16.8H28C27.5583 16.8 27.2 16.4418 27.2 16C27.2 15.5583 27.5583 15.2 28 15.2H31.2C31.6418 15.2 32 15.5583 32 16Z" fill="#FDB22B"/>
<path fill-rule="evenodd" clip-rule="evenodd" d="M23.9195 8.08047C23.607 7.76799 23.607 7.26159 23.9195 6.94911L26.1822 4.68639C26.4947 4.37391 27.0011 4.37391 27.3136 4.68639C27.626 4.99887 27.626 5.50527 27.3136 5.81775L25.0508 8.08047C24.7385 8.39279 24.232 8.39279 23.9195 8.08047Z" fill="#FDB22B"/>
<path fill-rule="evenodd" clip-rule="evenodd" d="M4.6862 27.3138C4.37372 27.0013 4.37372 26.4949 4.6862 26.1824L6.94892 23.9197C7.2614 23.6072 7.7678 23.6072 8.08028 23.9197C8.39276 24.2322 8.39276 24.7386 8.08028 25.0511L5.81756 27.3138C5.50524 27.6261 4.99868 27.6261 4.6862 27.3138Z" fill="#FDB22B"/>
<path fill-rule="evenodd" clip-rule="evenodd" d="M8.08044 8.08044C7.76796 8.39292 7.26156 8.39292 6.94908 8.08044L4.6862 5.81756C4.37372 5.50508 4.37372 4.99868 4.6862 4.6862C4.99868 4.37372 5.50508 4.37372 5.81756 4.6862L8.08028 6.94892C8.39276 7.2614 8.39276 7.76796 8.08044 8.08044Z" fill="#FDB22B"/>
<path fill-rule="evenodd" clip-rule="evenodd" d="M27.3137 27.3138C27.0012 27.6263 26.4948 27.6263 26.1823 27.3138L23.9196 25.0511C23.6071 24.7386 23.6071 24.2322 23.9196 23.9197C24.2321 23.6072 24.7385 23.6072 25.051 23.9197L27.3137 26.1824C27.626 26.4948 27.626 27.0013 27.3137 27.3138Z" fill="#FDB22B"/>
</svg>
